# xmcd
#
# Track frame offsets:
#	150
#	15851
#	34738
#	50303
#	69546
#	88304
#	106560
#	123193
#	142452
#	158375
#	179578
#	199938
#	212814
#	236525
#	258540
#
# Disc length: 3772 seconds
#
# Revision: 0
# Processed by: cddbd v1.5.2PL0 Copyright (c) Steve Scherf et al.
# Submitted via: EasyCDDAExtractor 16.0.4.1
#
DISCID=cd0eba0f
DTITLE=Gospel Heirs - A song in my Heart
DYEAR=1999
DGENRE=Southern Gospel
TTITLE0=My Lord and I
TTITLE1=And I know
TTITLE2=I'll tell it
TTITLE3=Wounded soldier
TTITLE4=Amazing grace
TTITLE5=Daystar
TTITLE6=Looking for Him
TTITLE7=The Lighthouse
TTITLE8=Palms of victory
TTITLE9=People need the Lord
TTITLE10=It is well
TTITLE11=Count your Blessings
TTITLE12=I'll worship only
TTITLE13=At the Cross
TTITLE14=Going Home
EXTD=
EXTT0=
EXTT1=
EXTT2=
EXTT3=
EXTT4=
EXTT5=
EXTT6=
EXTT7=
EXTT8=
EXTT9=
EXTT10=
EXTT11=
EXTT12=
EXTT13=
EXTT14=
PLAYORDER=
